<mxfile host="app.diagrams.net" modified="2023-11-10T09:19:48.862Z" agent="Mozilla/5.0 (Windows NT 10.0; Win64; x64) AppleWebKit/537.36 (KHTML, like Gecko) Chrome/118.0.0.0 Safari/537.36" etag="xKWc3MSLgMYUiPNlJFBG" version="22.1.0" type="device">
  <diagram id="C5RBs43oDa-KdzZeNtuy" name="Page-1">
    <mxGraphModel dx="794" dy="480" grid="1" gridSize="10" guides="1" tooltips="1" connect="1" arrows="1" fold="1" page="1" pageScale="1" pageWidth="827" pageHeight="1169" math="0" shadow="0">
      <root>
        <mxCell id="WIyWlLk6GJQsqaUBKTNV-0" />
        <mxCell id="WIyWlLk6GJQsqaUBKTNV-1" parent="WIyWlLk6GJQsqaUBKTNV-0" />
        <mxCell id="IIQTB9HLHV8wHG8E3kd3-2" value="" style="edgeStyle=orthogonalEdgeStyle;rounded=0;orthogonalLoop=1;jettySize=auto;html=1;labelBackgroundColor=none;strokeColor=#FF6392;fontColor=default;" parent="WIyWlLk6GJQsqaUBKTNV-1" source="IIQTB9HLHV8wHG8E3kd3-0" target="IIQTB9HLHV8wHG8E3kd3-1" edge="1">
          <mxGeometry relative="1" as="geometry" />
        </mxCell>
        <mxCell id="IIQTB9HLHV8wHG8E3kd3-0" value="Start" style="ellipse;whiteSpace=wrap;html=1;labelBackgroundColor=none;fillColor=#FFE45E;strokeColor=#FF6392;fontColor=#5AA9E6;" parent="WIyWlLk6GJQsqaUBKTNV-1" vertex="1">
          <mxGeometry x="190" y="10" width="120" height="60" as="geometry" />
        </mxCell>
        <mxCell id="IIQTB9HLHV8wHG8E3kd3-4" value="" style="edgeStyle=orthogonalEdgeStyle;rounded=0;orthogonalLoop=1;jettySize=auto;html=1;labelBackgroundColor=none;strokeColor=#FF6392;fontColor=default;" parent="WIyWlLk6GJQsqaUBKTNV-1" source="IIQTB9HLHV8wHG8E3kd3-1" edge="1">
          <mxGeometry relative="1" as="geometry">
            <mxPoint x="250" y="240" as="targetPoint" />
          </mxGeometry>
        </mxCell>
        <mxCell id="IIQTB9HLHV8wHG8E3kd3-1" value="a,b,c" style="shape=parallelogram;perimeter=parallelogramPerimeter;whiteSpace=wrap;html=1;fixedSize=1;labelBackgroundColor=none;fillColor=#FFE45E;strokeColor=#FF6392;fontColor=#5AA9E6;" parent="WIyWlLk6GJQsqaUBKTNV-1" vertex="1">
          <mxGeometry x="190" y="120" width="120" height="60" as="geometry" />
        </mxCell>
        <mxCell id="IIQTB9HLHV8wHG8E3kd3-9" value="False" style="edgeStyle=orthogonalEdgeStyle;rounded=0;orthogonalLoop=1;jettySize=auto;html=1;labelBackgroundColor=none;strokeColor=#FF6392;fontColor=default;" parent="WIyWlLk6GJQsqaUBKTNV-1" source="zZ7xe6Aw08HgdDTO9oEb-0" target="IIQTB9HLHV8wHG8E3kd3-8" edge="1">
          <mxGeometry relative="1" as="geometry">
            <mxPoint x="250" y="280" as="sourcePoint" />
          </mxGeometry>
        </mxCell>
        <mxCell id="IIQTB9HLHV8wHG8E3kd3-32" value="True" style="edgeStyle=orthogonalEdgeStyle;rounded=0;orthogonalLoop=1;jettySize=auto;html=1;entryX=0;entryY=0.5;entryDx=0;entryDy=0;labelBackgroundColor=none;strokeColor=#FF6392;fontColor=default;" parent="WIyWlLk6GJQsqaUBKTNV-1" target="IIQTB9HLHV8wHG8E3kd3-5" edge="1">
          <mxGeometry relative="1" as="geometry">
            <mxPoint x="460" y="260" as="targetPoint" />
            <mxPoint x="310" y="260" as="sourcePoint" />
          </mxGeometry>
        </mxCell>
        <mxCell id="IIQTB9HLHV8wHG8E3kd3-24" style="edgeStyle=orthogonalEdgeStyle;rounded=0;orthogonalLoop=1;jettySize=auto;html=1;labelBackgroundColor=none;strokeColor=#FF6392;fontColor=default;exitX=0.5;exitY=1;exitDx=0;exitDy=0;" parent="WIyWlLk6GJQsqaUBKTNV-1" source="zZ7xe6Aw08HgdDTO9oEb-9" edge="1">
          <mxGeometry relative="1" as="geometry">
            <mxPoint x="739.5" y="820" as="targetPoint" />
            <mxPoint x="739.5" y="450" as="sourcePoint" />
            <Array as="points">
              <mxPoint x="740" y="390" />
            </Array>
          </mxGeometry>
        </mxCell>
        <mxCell id="zZ7xe6Aw08HgdDTO9oEb-3" value="" style="edgeStyle=none;curved=1;rounded=0;orthogonalLoop=1;jettySize=auto;html=1;strokeColor=#FF6392;fontSize=12;fontColor=#5AA9E6;startSize=8;endSize=8;fillColor=#FFE45E;" parent="WIyWlLk6GJQsqaUBKTNV-1" source="IIQTB9HLHV8wHG8E3kd3-5" target="zZ7xe6Aw08HgdDTO9oEb-2" edge="1">
          <mxGeometry relative="1" as="geometry" />
        </mxCell>
        <mxCell id="IIQTB9HLHV8wHG8E3kd3-5" value="Ptrinh bậc nhất" style="rounded=0;whiteSpace=wrap;html=1;labelBackgroundColor=none;fillColor=#FFE45E;strokeColor=#FF6392;fontColor=#5AA9E6;" parent="WIyWlLk6GJQsqaUBKTNV-1" vertex="1">
          <mxGeometry x="390" y="235" width="100" height="50" as="geometry" />
        </mxCell>
        <mxCell id="IIQTB9HLHV8wHG8E3kd3-11" value="" style="edgeStyle=orthogonalEdgeStyle;rounded=0;orthogonalLoop=1;jettySize=auto;html=1;labelBackgroundColor=none;strokeColor=#FF6392;fontColor=default;" parent="WIyWlLk6GJQsqaUBKTNV-1" source="IIQTB9HLHV8wHG8E3kd3-8" target="IIQTB9HLHV8wHG8E3kd3-10" edge="1">
          <mxGeometry relative="1" as="geometry" />
        </mxCell>
        <mxCell id="IIQTB9HLHV8wHG8E3kd3-8" value="delta=b*b-4*a*c" style="rounded=0;whiteSpace=wrap;html=1;labelBackgroundColor=none;fillColor=#FFE45E;strokeColor=#FF6392;fontColor=#5AA9E6;" parent="WIyWlLk6GJQsqaUBKTNV-1" vertex="1">
          <mxGeometry x="180" y="340" width="140" height="40" as="geometry" />
        </mxCell>
        <mxCell id="IIQTB9HLHV8wHG8E3kd3-13" value="True" style="edgeStyle=orthogonalEdgeStyle;rounded=0;orthogonalLoop=1;jettySize=auto;html=1;entryX=0;entryY=0.5;entryDx=0;entryDy=0;labelBackgroundColor=none;strokeColor=#FF6392;fontColor=default;" parent="WIyWlLk6GJQsqaUBKTNV-1" source="IIQTB9HLHV8wHG8E3kd3-10" target="IIQTB9HLHV8wHG8E3kd3-12" edge="1">
          <mxGeometry relative="1" as="geometry" />
        </mxCell>
        <mxCell id="IIQTB9HLHV8wHG8E3kd3-15" value="False" style="edgeStyle=orthogonalEdgeStyle;rounded=0;orthogonalLoop=1;jettySize=auto;html=1;labelBackgroundColor=none;strokeColor=#FF6392;fontColor=default;" parent="WIyWlLk6GJQsqaUBKTNV-1" source="IIQTB9HLHV8wHG8E3kd3-10" target="IIQTB9HLHV8wHG8E3kd3-14" edge="1">
          <mxGeometry relative="1" as="geometry" />
        </mxCell>
        <mxCell id="IIQTB9HLHV8wHG8E3kd3-10" value="delta &amp;lt; 0" style="rhombus;whiteSpace=wrap;html=1;labelBackgroundColor=none;fillColor=#FFE45E;strokeColor=#FF6392;fontColor=#5AA9E6;" parent="WIyWlLk6GJQsqaUBKTNV-1" vertex="1">
          <mxGeometry x="190" y="430" width="120" height="60" as="geometry" />
        </mxCell>
        <mxCell id="IIQTB9HLHV8wHG8E3kd3-12" value="Ptrinh vô nghiệm" style="rounded=0;whiteSpace=wrap;html=1;labelBackgroundColor=none;fillColor=#FFE45E;strokeColor=#FF6392;fontColor=#5AA9E6;" parent="WIyWlLk6GJQsqaUBKTNV-1" vertex="1">
          <mxGeometry x="430" y="435" width="210" height="50" as="geometry" />
        </mxCell>
        <mxCell id="IIQTB9HLHV8wHG8E3kd3-17" value="True" style="edgeStyle=orthogonalEdgeStyle;rounded=0;orthogonalLoop=1;jettySize=auto;html=1;entryX=0;entryY=0.5;entryDx=0;entryDy=0;labelBackgroundColor=none;strokeColor=#FF6392;fontColor=default;" parent="WIyWlLk6GJQsqaUBKTNV-1" source="IIQTB9HLHV8wHG8E3kd3-14" target="IIQTB9HLHV8wHG8E3kd3-16" edge="1">
          <mxGeometry relative="1" as="geometry" />
        </mxCell>
        <mxCell id="IIQTB9HLHV8wHG8E3kd3-19" value="False" style="edgeStyle=orthogonalEdgeStyle;rounded=0;orthogonalLoop=1;jettySize=auto;html=1;labelBackgroundColor=none;strokeColor=#FF6392;fontColor=default;" parent="WIyWlLk6GJQsqaUBKTNV-1" source="IIQTB9HLHV8wHG8E3kd3-14" target="IIQTB9HLHV8wHG8E3kd3-18" edge="1">
          <mxGeometry relative="1" as="geometry" />
        </mxCell>
        <mxCell id="IIQTB9HLHV8wHG8E3kd3-14" value="delta = 0" style="rhombus;whiteSpace=wrap;html=1;labelBackgroundColor=none;fillColor=#FFE45E;strokeColor=#FF6392;fontColor=#5AA9E6;" parent="WIyWlLk6GJQsqaUBKTNV-1" vertex="1">
          <mxGeometry x="190" y="545" width="120" height="55" as="geometry" />
        </mxCell>
        <mxCell id="IIQTB9HLHV8wHG8E3kd3-16" value="Ptrinh có nghiệm duy nhất x=-b/2a" style="rounded=0;whiteSpace=wrap;html=1;labelBackgroundColor=none;fillColor=#FFE45E;strokeColor=#FF6392;fontColor=#5AA9E6;" parent="WIyWlLk6GJQsqaUBKTNV-1" vertex="1">
          <mxGeometry x="430" y="552.5" width="210" height="40" as="geometry" />
        </mxCell>
        <mxCell id="IIQTB9HLHV8wHG8E3kd3-21" value="" style="edgeStyle=orthogonalEdgeStyle;rounded=0;orthogonalLoop=1;jettySize=auto;html=1;labelBackgroundColor=none;strokeColor=#FF6392;fontColor=default;" parent="WIyWlLk6GJQsqaUBKTNV-1" source="IIQTB9HLHV8wHG8E3kd3-18" target="IIQTB9HLHV8wHG8E3kd3-20" edge="1">
          <mxGeometry relative="1" as="geometry" />
        </mxCell>
        <mxCell id="IIQTB9HLHV8wHG8E3kd3-18" value="Prinh có 2 nghiệm phân biệt&lt;br&gt;x1 = (-b+sqrt(delta))/2*a&lt;br&gt;x2 = (-b-sqrt(delta))/2*a" style="rounded=0;whiteSpace=wrap;html=1;labelBackgroundColor=none;fillColor=#FFE45E;strokeColor=#FF6392;fontColor=#5AA9E6;" parent="WIyWlLk6GJQsqaUBKTNV-1" vertex="1">
          <mxGeometry x="160" y="670" width="180" height="60" as="geometry" />
        </mxCell>
        <mxCell id="IIQTB9HLHV8wHG8E3kd3-20" value="End" style="ellipse;whiteSpace=wrap;html=1;labelBackgroundColor=none;fillColor=#FFE45E;strokeColor=#FF6392;fontColor=#5AA9E6;" parent="WIyWlLk6GJQsqaUBKTNV-1" vertex="1">
          <mxGeometry x="680" y="770" width="120" height="80" as="geometry" />
        </mxCell>
        <mxCell id="IIQTB9HLHV8wHG8E3kd3-30" value="" style="endArrow=none;html=1;rounded=0;labelBackgroundColor=none;strokeColor=#FF6392;fontColor=default;exitX=1;exitY=0.5;exitDx=0;exitDy=0;" parent="WIyWlLk6GJQsqaUBKTNV-1" source="IIQTB9HLHV8wHG8E3kd3-16" edge="1">
          <mxGeometry width="50" height="50" relative="1" as="geometry">
            <mxPoint x="710" y="572" as="sourcePoint" />
            <mxPoint x="740" y="572" as="targetPoint" />
          </mxGeometry>
        </mxCell>
        <mxCell id="IIQTB9HLHV8wHG8E3kd3-31" value="" style="endArrow=none;html=1;rounded=0;labelBackgroundColor=none;strokeColor=#FF6392;fontColor=default;exitX=1;exitY=0.5;exitDx=0;exitDy=0;" parent="WIyWlLk6GJQsqaUBKTNV-1" source="IIQTB9HLHV8wHG8E3kd3-12" edge="1">
          <mxGeometry width="50" height="50" relative="1" as="geometry">
            <mxPoint x="710" y="460" as="sourcePoint" />
            <mxPoint x="740" y="460" as="targetPoint" />
          </mxGeometry>
        </mxCell>
        <mxCell id="zZ7xe6Aw08HgdDTO9oEb-1" value="" style="edgeStyle=orthogonalEdgeStyle;rounded=0;orthogonalLoop=1;jettySize=auto;html=1;labelBackgroundColor=none;strokeColor=#FF6392;fontColor=default;" parent="WIyWlLk6GJQsqaUBKTNV-1" target="zZ7xe6Aw08HgdDTO9oEb-0" edge="1">
          <mxGeometry relative="1" as="geometry">
            <mxPoint x="250" y="280" as="sourcePoint" />
            <mxPoint x="250" y="340" as="targetPoint" />
          </mxGeometry>
        </mxCell>
        <mxCell id="zZ7xe6Aw08HgdDTO9oEb-0" value="a = 0" style="rhombus;whiteSpace=wrap;html=1;fontSize=16;labelBackgroundColor=none;fillColor=#FFE45E;strokeColor=#FF6392;fontColor=#5AA9E6;" parent="WIyWlLk6GJQsqaUBKTNV-1" vertex="1">
          <mxGeometry x="190" y="235" width="120" height="55" as="geometry" />
        </mxCell>
        <mxCell id="zZ7xe6Aw08HgdDTO9oEb-4" value="True" style="edgeStyle=none;curved=1;rounded=0;orthogonalLoop=1;jettySize=auto;html=1;strokeColor=#FF6392;fontSize=12;fontColor=#5AA9E6;startSize=8;endSize=8;fillColor=#FFE45E;" parent="WIyWlLk6GJQsqaUBKTNV-1" source="zZ7xe6Aw08HgdDTO9oEb-2" target="IIQTB9HLHV8wHG8E3kd3-12" edge="1">
          <mxGeometry relative="1" as="geometry" />
        </mxCell>
        <mxCell id="zZ7xe6Aw08HgdDTO9oEb-2" value="b= 0" style="rhombus;whiteSpace=wrap;html=1;strokeColor=#FF6392;fontSize=16;fontColor=#5AA9E6;fillColor=#FFE45E;" parent="WIyWlLk6GJQsqaUBKTNV-1" vertex="1">
          <mxGeometry x="540" y="235" width="100" height="50" as="geometry" />
        </mxCell>
        <mxCell id="zZ7xe6Aw08HgdDTO9oEb-7" value="" style="edgeStyle=orthogonalEdgeStyle;rounded=0;orthogonalLoop=1;jettySize=auto;html=1;labelBackgroundColor=none;strokeColor=#FF6392;fontColor=default;exitX=1;exitY=0.5;exitDx=0;exitDy=0;" parent="WIyWlLk6GJQsqaUBKTNV-1" source="zZ7xe6Aw08HgdDTO9oEb-2" edge="1">
          <mxGeometry relative="1" as="geometry">
            <mxPoint x="735" y="320" as="targetPoint" />
            <mxPoint x="640" y="260" as="sourcePoint" />
          </mxGeometry>
        </mxCell>
        <mxCell id="zZ7xe6Aw08HgdDTO9oEb-10" value="False" style="edgeLabel;html=1;align=center;verticalAlign=middle;resizable=0;points=[];fontSize=16;fontColor=#5AA9E6;" parent="zZ7xe6Aw08HgdDTO9oEb-7" vertex="1" connectable="0">
          <mxGeometry x="-0.3483" relative="1" as="geometry">
            <mxPoint as="offset" />
          </mxGeometry>
        </mxCell>
        <mxCell id="zZ7xe6Aw08HgdDTO9oEb-9" value="x = -c/b" style="shape=parallelogram;perimeter=parallelogramPerimeter;whiteSpace=wrap;html=1;fixedSize=1;strokeColor=#FF6392;fontSize=16;fontColor=#5AA9E6;fillColor=#FFE45E;" parent="WIyWlLk6GJQsqaUBKTNV-1" vertex="1">
          <mxGeometry x="680" y="320" width="120" height="60" as="geometry" />
        </mxCell>
      </root>
    </mxGraphModel>
  </diagram>
</mxfile>
